<?xml version="1.0" encoding="UTF-8" standalone="no"?>
<svg width="16px" height="16px" viewBox="0 0 16 16" version="1.1" xmlns="http://www.w3.org/2000/svg" xmlns:xlink="http://www.w3.org/1999/xlink" xmlns:sketch="http://www.bohemiancoding.com/sketch/ns">
    <!-- Generator: Sketch 3.4.4 (17249) - http://www.bohemiancoding.com/sketch -->
    <title>favicon</title>
    <desc>Created with Sketch.</desc>
    <defs></defs>
    <g id="Page-1" stroke="none" stroke-width="1" fill="none" fill-rule="evenodd" sketch:type="MSPage">
        <g id="favicon" sketch:type="MSArtboardGroup" fill="#000000">
            <g id="Icon" sketch:type="MSLayerGroup" transform="translate(1.000000, 0.000000)">
                <rect id="front" sketch:type="MSShapeGroup" x="0" y="4" width="10" height="12" rx="3"></rect>
                <path d="M7.00032973,0 C5.34329338,0 4,1.34162278 4,2.99715203 L4,9.00284797 C4,10.6581293 5.3486445,12 7.00032973,12 L10.9996703,12 C12.6567066,12 14,10.6583772 14,9.00284797 L14,2.99715203 C14,1.34187067 12.6513555,0 10.9996703,0 L7.00032973,0 Z M6.99077797,2 C6.44358641,2 6,2.45303631 6,2.99703014 L6,9.00296986 C6,9.5536144 6.45097518,10 6.99077797,10 L11.009222,10 C11.5564136,10 12,9.54696369 12,9.00296986 L12,2.99703014 C12,2.4463856 11.5490248,2 11.009222,2 L6.99077797,2 Z" id="back-flat" sketch:type="MSShapeGroup"></path>
            </g>
        </g>
    </g>
</svg>